<svg xmlns="http://www.w3.org/2000/svg" xmlns:xlink="http://www.w3.org/1999/xlink" width="204.272" height="33" viewBox="0 0 204.272 33">
  <defs>
    <clipPath id="clip-path">
      <path id="Path_1865" data-name="Path 1865" d="M80.928-12.877c-1.1,1.062-2.234,2.154-3.428,3.33-1.195-1.176-2.328-2.269-3.429-3.33-6.707-6.47-11.138-10.743-11.138-16.361a9.891,9.891,0,0,1,1.925-6.073,6.157,6.157,0,0,1,4.908-2.5,6.423,6.423,0,0,1,5.335,3.4,13.754,13.754,0,0,1,1.48,3.331.987.987,0,0,0,.919.755.987.987,0,0,0,.919-.755,13.754,13.754,0,0,1,1.48-3.331,6.423,6.423,0,0,1,5.335-3.4,6.157,6.157,0,0,1,4.908,2.5,9.891,9.891,0,0,1,1.925,6.073C92.066-23.619,87.636-19.346,80.928-12.877ZM91.592-36.758A7.974,7.974,0,0,0,85.234-40c-3.477,0-5.678,2.351-6.913,4.323A14.805,14.805,0,0,0,77.5-34.17a14.807,14.807,0,0,0-.821-1.507C75.444-37.649,73.243-40,69.766-40a7.974,7.974,0,0,0-6.358,3.242A12.248,12.248,0,0,0,61-29.238a14.871,14.871,0,0,0,3.374,9.1,79.737,79.737,0,0,0,8.443,8.931c1.277,1.232,2.6,2.5,4,3.9l.042.042A.905.905,0,0,0,77.5-7a.905.905,0,0,0,.637-.27l.042-.042c1.406-1.393,2.726-2.666,4-3.9a79.738,79.738,0,0,0,8.443-8.931A14.871,14.871,0,0,0,94-29.238,12.246,12.246,0,0,0,91.592-36.758Z" transform="translate(-61 40)" fill="#1274b4"/>
    </clipPath>
    <clipPath id="clip-path-2">
      <rect id="Rectangle_142" data-name="Rectangle 142" width="1622.5" height="7456.625" fill="#1274b4"/>
    </clipPath>
    <clipPath id="clip-path-3">
      <path id="Path_1866" data-name="Path 1866" d="M110.192-2.538a2.116,2.116,0,0,0,2.115-2.116,2.115,2.115,0,0,0-2.115-2.115,2.115,2.115,0,0,0-2.115,2.115A2.116,2.116,0,0,0,110.192-2.538Z" transform="translate(-108.077 6.769)" fill="#1274b4" clip-rule="evenodd"/>
    </clipPath>
    <clipPath id="clip-path-5">
      <path id="Path_1867" data-name="Path 1867" d="M98.826,22.677l-6.661-13.5Q89.7,2.686,95.86,4.85c1.425.5,2.29.81,2.793.995.5-.185,1.368-.495,2.793-.995q6.159-2.166,3.7,4.328l-6.176,13.5c-.006.082-.013.167-.019.25l-.05-.1-.046.1Z" transform="translate(-91.461 -4.309)" fill="#1274b4" clip-rule="evenodd"/>
    </clipPath>
  </defs>
  <g id="Group_422" data-name="Group 422" transform="translate(-241 -36)">
    <path id="Path_3076" data-name="Path 3076" d="M4.992-21.28v9.52h10.32v1.36H4.992V0H3.344V-22.64H16.912v1.36ZM39.952-1.392V0H27.584V-22.64h1.648V-1.392ZM53.936-9.328V0H52.3V-9.328L43.92-22.64h1.44a.613.613,0,0,1,.368.1.793.793,0,0,1,.24.3l6.48,10.4q.208.368.384.712a6.843,6.843,0,0,1,.3.68q.128-.336.288-.68t.368-.712l6.48-10.4a.723.723,0,0,1,.232-.288.616.616,0,0,1,.376-.112h1.44ZM94.528-22.64V0H93.1V-19.3a8.569,8.569,0,0,1,.048-.88L84.24-4.352a.7.7,0,0,1-.64.416h-.256a.7.7,0,0,1-.64-.416L73.552-20.208q.048.48.048.912V0H72.16V-22.64H73.3a1.034,1.034,0,0,1,.352.048.58.58,0,0,1,.256.256L83.04-6.592a6.512,6.512,0,0,1,.416.96q.1-.256.208-.5t.24-.472l8.88-15.728a.566.566,0,0,1,.264-.256,1.108,1.108,0,0,1,.36-.048ZM120.992-1.36,120.96,0H107.392V-22.64H120.96v1.36H109.04v9.152h9.92V-10.8h-9.92v9.44ZM151.2-11.328a13.4,13.4,0,0,1-.784,4.72,10.192,10.192,0,0,1-2.208,3.568,9.555,9.555,0,0,1-3.416,2.256A11.894,11.894,0,0,1,140.4,0h-8.272V-22.64H140.4a11.894,11.894,0,0,1,4.392.784,9.555,9.555,0,0,1,3.416,2.256,10.192,10.192,0,0,1,2.208,3.568A13.348,13.348,0,0,1,151.2-11.328Zm-1.7,0a12.634,12.634,0,0,0-.656-4.224,8.806,8.806,0,0,0-1.856-3.136,7.93,7.93,0,0,0-2.88-1.952,9.91,9.91,0,0,0-3.712-.672h-6.624V-1.328H140.4A9.91,9.91,0,0,0,144.112-2a7.93,7.93,0,0,0,2.88-1.952,8.806,8.806,0,0,0,1.856-3.136A12.686,12.686,0,0,0,149.5-11.328ZM164.272,0h-1.648V-22.64h1.648Z" transform="translate(281 64)" fill="#006aaf"/>
    <g id="Group_421" data-name="Group 421" transform="translate(180 76)">
      <g id="Group_412" data-name="Group 412" transform="translate(61 -40)">
        <g id="Group_411" data-name="Group 411" transform="translate(0 0)" clip-path="url(#clip-path)">
          <g id="Group_410" data-name="Group 410" transform="translate(-83.875 -60.5)">
            <g id="Group_409" data-name="Group 409" clip-path="url(#clip-path-2)">
              <rect id="Rectangle_141" data-name="Rectangle 141" width="46.75" height="46.75" transform="translate(77 53.625)" fill="#1274b4"/>
            </g>
          </g>
        </g>
      </g>
      <g id="Group_416" data-name="Group 416" transform="translate(75.385 -29.846)">
        <g id="Group_415" data-name="Group 415" transform="translate(0 0)" clip-path="url(#clip-path-3)">
          <g id="Group_414" data-name="Group 414" transform="translate(-98.26 -70.654)">
            <g id="Group_413" data-name="Group 413" clip-path="url(#clip-path-2)">
              <rect id="Rectangle_143" data-name="Rectangle 143" width="17.981" height="17.981" transform="translate(91.385 63.779)" fill="#1274b4"/>
            </g>
          </g>
        </g>
      </g>
      <g id="Group_420" data-name="Group 420" transform="translate(70.308 -26.461)">
        <g id="Group_419" data-name="Group 419" transform="translate(0 0)" clip-path="url(#clip-path-5)">
          <g id="Group_418" data-name="Group 418" transform="translate(-93.183 -74.039)">
            <g id="Group_417" data-name="Group 417" clip-path="url(#clip-path-2)">
              <rect id="Rectangle_145" data-name="Rectangle 145" width="28.135" height="32.366" transform="translate(86.308 67.164)" fill="#1274b4"/>
            </g>
          </g>
        </g>
      </g>
    </g>
  </g>
</svg>
